<?xml version="1.0" encoding="UTF-8" standalone="no"?>
<!-- Created with Inkscape (http://www.inkscape.org/) -->

<svg
   version="1.1"
   id="svg2"
   xml:space="preserve"
   viewBox="0 0 300 80"
   xmlns="http://www.w3.org/2000/svg"
   xmlns:svg="http://www.w3.org/2000/svg"><defs
     id="defs6" /><g
     id="g8"
     transform="matrix(1.3333333,0,0,-1.3333333,0,114.58367)"><path
       d="M 24.289051,76.888009 C 22.96493,82.691749 18.718832,85.613005 13.148796,85.613005 4.851745,85.613005 0,78.874587 0,71.045173 0,63.216007 4.267619,56.477182 13.148796,56.477182 c 5.531347,0 9.231315,2.687341 11.451705,8.257667 L 19.8485,66.916657 c -1.012899,-3.233281 -3.077263,-5.609509 -6.699704,-5.609509 -5.5312299,0 -7.8296946,4.907837 -7.8296946,9.738025 0,4.83021 2.2984647,9.737649 7.8296946,9.737649 3.155081,0 5.686805,-2.103086 6.115586,-5.17996 z M 42.88496,70.889162 c 0,5.609135 -4.246056,6.466187 -8.491845,6.466187 -4.323492,0 -8.413713,-1.791725 -8.413713,-6.42707 L 30.73192,70.73341 c 0,2.142587 0.895471,2.960532 3.661195,2.960532 2.064496,0 3.739825,-0.545408 3.739825,-2.492762 v -0.584516 c -1.207427,-0.428536 -3.428192,-0.817936 -5.142086,-1.168395 l -1.986702,-0.389666 c -2.921386,-0.584265 -5.998142,-2.298344 -5.998142,-6.154571 0,-3.817168 2.959962,-6.193189 6.699584,-6.193189 2.453923,0 4.596301,0.778715 6.427346,2.259113 0,-0.506441 0.155212,-1.324398 0.467191,-1.791747 h 5.024319 c -0.272193,0.428249 -0.73949,1.285306 -0.73949,3.310959 z m -4.75202,-6.660781 c 0,-2.531984 -2.843745,-3.622306 -5.063979,-3.622306 -1.71379,0 -3.077311,0.973821 -3.077311,2.453927 0,1.869439 1.480273,2.375868 3.272032,2.72647 l 2.609772,0.545269 c 0.856936,0.156021 1.636189,0.389674 2.259486,0.701722 z m 8.15349,-7.050172 h 4.751681 V 85.691092 H 46.28643 Z m 7.962768,24.002066 V 61.696397 c 0,-2.999228 1.324054,-4.751855 5.219426,-4.751855 1.480266,0 2.648202,0.233667 3.778514,0.467349 v 3.895257 c -0.701417,-0.07803 -1.441614,-0.233719 -2.103904,-0.233719 -1.83064,0 -2.142259,0.857022 -2.142259,2.414701 v 9.972127 h 4.246163 v 3.427752 h -4.246163 v 9.049746 z M 83.04737,65.903649 c 0,7.050449 -2.88273,11.4517 -9.465394,11.4517 -6.388361,0 -10.088688,-4.440526 -10.088688,-10.321886 0,-5.882349 3.700327,-10.32262 10.088688,-10.32262 5.37491,0 8.218553,2.570458 9.699042,4.829935 l -4.012486,2.337043 c -0.467293,-0.661814 -1.947589,-2.804392 -5.686556,-2.804392 -2.570853,0 -5.025003,1.908518 -5.102829,4.83022 z m -14.568223,3.661378 c 0.506349,2.10351 2.337252,3.89523 5.102829,3.89523 3.194014,0 4.479183,-2.843593 4.479183,-3.89523 z m 34.576423,2.181164 c -1.20731,2.960394 -3.544527,5.609158 -8.33609,5.609158 -6.387578,0 -10.088236,-4.440526 -10.088236,-10.321886 0,-5.882349 3.700658,-10.32262 9.737497,-10.32262 5.336977,0 7.596429,3.154698 8.920849,6.037815 l -4.051474,2.142213 c -0.739755,-1.791757 -1.947094,-3.817442 -4.790797,-3.817442 -3.311044,0 -4.830275,2.882072 -4.830275,5.960034 0,3.076612 1.713886,5.959054 5.102436,5.959054 1.870087,0 3.54532,-1.207213 4.168344,-3.154939 z m 1.48031,-14.567982 h 4.7522 v 10.127749 c 0,2.414833 1.09086,5.453281 4.67422,5.453281 2.41558,0 3.50599,-1.169041 3.50599,-3.895223 V 57.178209 H 122.22 v 13.048768 c 0,5.726324 -3.85623,7.128372 -7.20595,7.128372 -2.68804,0 -4.5968,-1.051878 -5.64853,-2.415357 h -0.0782 v 10.7511 h -4.75215 V 57.178209"
       style="fill:#ff6c0c;fill-opacity:1;fill-rule:nonzero;stroke:none;stroke-width:0.0342821"
       id="path12" /><path
       d="m 142.38288,114.66793 c 5.80374,1.32412 8.72499,5.57022 8.72499,11.14026 0,8.29705 -6.73841,13.14879 -14.56783,13.14879 -7.82916,0 -14.56799,-4.26762 -14.56799,-13.14879 0,-5.53135 2.68734,-9.23132 8.25767,-11.45171 l 2.18181,4.752 c -3.23328,1.0129 -5.60951,3.07727 -5.60951,6.69971 0,5.53123 4.90784,7.82969 9.73802,7.82969 4.83021,0 9.73765,-2.29846 9.73765,-7.82969 0,-3.15508 -2.10308,-5.68681 -5.17996,-6.11559 z m -5.99885,-18.595908 c 5.60914,0 6.46619,4.246058 6.46619,8.491848 0,4.32349 -1.79173,8.41371 -6.42707,8.41371 l -0.19487,-4.75252 c 2.14259,0 2.96053,-0.89547 2.96053,-3.66119 0,-2.0645 -0.54541,-3.73983 -2.49276,-3.73983 h -0.58452 c -0.42853,1.20743 -0.81793,3.42819 -1.16839,5.14209 l -0.38967,1.9867 c -0.58426,2.92139 -2.29834,5.99814 -6.15457,5.99814 -3.81717,0 -6.19319,-2.95996 -6.19319,-6.69958 0,-2.45392 0.77872,-4.5963 2.25912,-6.42735 -0.50644,0 -1.3244,-0.15521 -1.79175,-0.46719 v -5.024318 c 0.42825,0.272193 1.28531,0.73949 3.31096,0.73949 z m -6.66078,4.752018 c -2.53198,0 -3.6223,2.84375 -3.6223,5.06398 0,1.71379 0.97382,3.07731 2.45392,3.07731 1.86944,0 2.37587,-1.48027 2.72647,-3.27203 l 0.54527,-2.60977 c 0.15602,-0.85694 0.38968,-1.63619 0.70172,-2.25949 z m -7.05017,-8.153488 v -4.751681 h 28.51288 v 4.751681 z m 24.00207,-7.962768 h -19.48388 c -2.99923,0 -4.75186,-1.324054 -4.75186,-5.219426 0,-1.480266 0.23367,-2.648202 0.46735,-3.778514 h 3.89526 c -0.078,0.701417 -0.23372,1.441614 -0.23372,2.103904 0,1.83064 0.85702,2.142259 2.4147,2.142259 h 9.97213 v -4.246163 h 3.42775 v 4.246163 h 9.04974 z M 131.39852,55.909609 c 7.05045,0 11.4517,2.88273 11.4517,9.4654 0,6.388358 -4.44053,10.088685 -10.32189,10.088685 -5.88235,0 -10.32262,-3.700327 -10.32262,-10.088685 0,-5.37491 2.57046,-8.21856 4.82994,-9.69905 l 2.33704,4.01249 c -0.66181,0.46729 -2.80439,1.94759 -2.80439,5.68656 0,2.57085 1.90852,5.025 4.83022,5.102826 z m 3.66138,14.568226 c 2.10351,-0.506349 3.89523,-2.337252 3.89523,-5.102826 0,-3.19402 -2.8436,-4.47919 -3.89523,-4.47919 z m 2.18116,-34.576426 c 2.9604,1.20731 5.60916,3.54453 5.60916,8.33609 0,6.38758 -4.44053,10.08824 -10.32189,10.08824 -5.88235,0 -10.32262,-3.70066 -10.32262,-9.7375 0,-5.33698 3.1547,-7.59643 6.03782,-8.92085 l 2.14221,4.05148 c -1.79176,0.73975 -3.81744,1.94709 -3.81744,4.79079 0,3.31105 2.88207,4.83028 5.96003,4.83028 3.07662,0 5.95906,-1.71389 5.95906,-5.10244 0,-1.87008 -1.20722,-3.54532 -3.15494,-4.16834 z m -14.56798,-1.48031 v -4.7522 h 10.12775 c 2.41483,0 5.45328,-1.09086 5.45328,-4.67422 0,-2.41558 -1.16904,-3.50599 -3.89522,-3.50599 h -11.68581 v -4.75171 h 13.04877 c 5.72632,0 7.12837,3.85623 7.12837,7.20595 0,2.68804 -1.05188,4.5968 -2.41536,5.64853 v 0.0782 h 10.7511 v 4.75215 h -28.51288"
       style="display:none;fill:#ff6c0c;fill-opacity:1;fill-rule:nonzero;stroke:none;stroke-width:0.0342821"
       id="path12-1" /></g><g
     id="layer2"
     transform="translate(0,-0.00299953)"><text
       xml:space="preserve"
       style="font-style:normal;font-variant:normal;font-weight:normal;font-stretch:normal;font-size:38.2317px;font-family:Monda;-inkscape-font-specification:'Monda, Normal';font-variant-ligatures:normal;font-variant-caps:normal;font-variant-numeric:normal;font-variant-east-asian:normal;fill:#003b4c;stroke-width:0.358426"
       x="174.07831"
       y="38.225368"
       id="text535"><tspan
         id="tspan533"
         x="174.07831"
         y="38.225368"
         style="stroke-width:0.358426">DATA</tspan></text><text
       xml:space="preserve"
       style="font-style:normal;font-variant:normal;font-weight:normal;font-stretch:normal;font-size:13.3333px;font-family:'Atkinson Hyperlegible';-inkscape-font-specification:'Atkinson Hyperlegible, Normal';font-variant-ligatures:normal;font-variant-caps:normal;font-variant-numeric:normal;font-variant-east-asian:normal;fill:#003b4c;stroke-width:0.517963"
       x="177.28561"
       y="54.7924"
       id="text380"><tspan
         id="tspan378"
         x="177.28561"
         y="54.7924"
         style="font-style:normal;font-variant:normal;font-weight:normal;font-stretch:normal;font-size:13.3333px;font-family:'Atkinson Hyperlegible';-inkscape-font-specification:'Atkinson Hyperlegible, Normal';font-variant-ligatures:normal;font-variant-caps:normal;font-variant-numeric:normal;font-variant-east-asian:normal;stroke-width:0.517963">a service of</tspan></text><text
       xml:space="preserve"
       style="font-style:normal;font-variant:normal;font-weight:normal;font-stretch:normal;font-size:18.6667px;font-family:'Atkinson Hyperlegible';-inkscape-font-specification:'Atkinson Hyperlegible, Normal';font-variant-ligatures:normal;font-variant-caps:normal;font-variant-numeric:normal;font-variant-east-asian:normal;fill:#003b4c;stroke-width:0.481735"
       x="176.36896"
       y="76.990608"
       id="text384"><tspan
         id="tspan382"
         x="176.36896"
         y="76.990608"
         style="font-style:normal;font-variant:normal;font-weight:normal;font-stretch:normal;font-size:18.6667px;font-family:'Atkinson Hyperlegible';-inkscape-font-specification:'Atkinson Hyperlegible, Normal';font-variant-ligatures:normal;font-variant-caps:normal;font-variant-numeric:normal;font-variant-east-asian:normal;stroke-width:0.481735">Caltech Library</tspan></text></g></svg>
