<svg id="Layer_1" data-name="Layer 1" xmlns="http://www.w3.org/2000/svg" viewBox="0 0 654 121"><defs><style>.cls-1{fill:none;}.cls-2{fill:#f37324;}</style></defs><path d="M396.17,45.68c0-5.35-.17-14.19-.25-15.69-.17-2.17-.59-3-3.09-3h-3.92c-.5,0-.59-.41-.59-.83V24.31c0-.41.09-.58.59-.58.92,0,3.92.25,10.85.25,8.09,0,11.6-.25,12.35-.25s.75.25.75.67v1.92c0,.41-.17.66-.84.66h-5c-2.59,0-2.92.84-2.92,3.26,0,1.08-.25,13.68-.25,19.52v7.18c0,1.42,0,19.44.25,22.87,1.83.16,18.35.33,20.94,0,4.92-.76,9.93-10.77,11.1-14,.17-.34.33-.5.67-.34l1.33.5c.25.17.25.25.17.75-.25.59-3.59,14.36-4.09,16.61-1.08-.08-7.59-.17-15-.17s-15.61-.08-20.11-.08c-3.26,0-5.68.08-7.43.08s-2.67.17-3.25.17-.67-.17-.67-.58V80.64c0-.42.08-.58.58-.58h4c3.09,0,3.59-1.17,3.59-2.26,0-1.58.25-22.36.25-27.45Z" transform="translate(8.01 7.37)"/><path d="M448.25,58.78c0-2.84-.5-4.34-4.68-5-.58-.08-.75-.25-.75-.58v-.75c0-.26.17-.42.59-.59a68.39,68.39,0,0,0,9-4.09,3.48,3.48,0,0,1,1.58-.5c.42,0,.5.42.42,1-.17,1.42-.17,6.68-.17,13.6V71c0,3.26,0,6.26.09,7.18.16,1.58.42,2.17,1.33,2.17h3.84c.67,0,.84.25.84.75v1.42c0,.58-.17.83-.75.83s-4.51-.25-8-.25c-4.84,0-8.09.25-9,.25-.42,0-.67-.17-.67-.67V81c0-.5.25-.66.84-.66h4.09c.92,0,1.25-.34,1.33-1.67.09-2.51.09-5.09.09-7.6Zm-3.93-25.62a4.92,4.92,0,0,1,5.26-4.67,4.4,4.4,0,0,1,4.51,4.42,4.78,4.78,0,0,1-5,4.92C447.16,37.83,444.32,35.91,444.32,33.16Z" transform="translate(8.01 7.37)"/><path d="M468,38.08c0-5.59-.92-6.76-3.93-7.76l-.83-.25c-.92-.25-1.08-.42-1.08-.67v-.66c0-.25.16-.42.66-.67a90.82,90.82,0,0,0,8.85-4.59,3.45,3.45,0,0,1,1.75-.75c.58,0,.75.41.67,1.42-.09.66-.09,10.18-.09,17.6v9.68c2.67-2.58,7.43-4.17,11.52-4.17,7.34,0,15.27,5.93,15.27,17.86,0,9.76-7.84,18.94-17.36,18.94-4.67,0-7.92-1-9.84-2.17l-3.34,1.84a1.22,1.22,0,0,1-1.09.25l-1-.25c-.33-.09-.41-.25-.33-.67.17-1.17.17-8.09.17-14.19Zm6,27c0,6.92.25,9.43,1.26,12.1.83,2,4.34,4.17,7.92,4.17,5,0,11.19-3.42,11.19-14.35,0-8.1-4.26-15.77-12.44-15.77a11.11,11.11,0,0,0-7.93,3Z" transform="translate(8.01 7.37)"/><path d="M512.17,60.86c0-4.25-.66-5.09-3-6.34l-1.58-.83c-.51-.17-.67-.25-.67-.59v-.5c0-.33.16-.5.67-.75l8.26-4.26a2.61,2.61,0,0,1,1.16-.33c.51,0,.59.5.59,1l.42,5.93h.33c2.5-3.84,6.43-7.26,10-7.26,2.84,0,4.26,1.75,4.26,3.67a4,4,0,0,1-3.5,4.09A5.49,5.49,0,0,1,526.7,54a5.36,5.36,0,0,0-2.76-.67c-1.33,0-3.5.84-4.92,3.51a9.1,9.1,0,0,0-.84,2.67V76.89c0,2.58.59,3.42,2.34,3.42h3.92c.5,0,.59.25.59.75v1.5c0,.5-.09.75-.42.75-.5,0-4.34-.25-8.85-.25-5.17,0-8.68.25-9.18.25-.33,0-.5-.17-.5-.83V81.06c0-.59.17-.75.92-.75h3.26c1.25,0,1.83-.5,1.83-1.59.08-2.75.08-5.67.08-10Z" transform="translate(8.01 7.37)"/><path d="M563.5,79.39a3.87,3.87,0,0,0,2.92-1.25c.33-.42.5-.59.83-.34l.84.67c.25.25.41.67-.09,1.5a6.88,6.88,0,0,1-6.51,4.09c-3,0-5.17-2.17-5.92-5.59h-.17a17.9,17.9,0,0,1-8.26,5.09,15.68,15.68,0,0,1-4.92.5c-2,0-5-1.67-5-6.92,0-3.84,1.75-7.18,8.35-10.1,3.75-1.67,8.09-3.67,9.42-4.84V56.86c-.16-1.42-.24-3.59-1.16-4.68s-2.59-1.83-5-1.83a9.35,9.35,0,0,0-5.42,1.75c-1.17,1.09-.42,2.34-.42,3.84,0,2.92-1,4.76-4.42,4.76-1.34,0-2-.75-2-2.67,0-2.67,2.34-5.85,5.76-7.85a18.48,18.48,0,0,1,10.18-2.92c3.92,0,5.51,1.17,6.68,2.25,1.75,1.76,1.83,3.68,1.83,5.93V73.13C561,77.89,562,79.39,563.5,79.39ZM554.9,64.7c-3,2.25-11.18,3.92-11.18,10.85,0,3.09,1.84,4.59,4.34,4.59s6.84-2.92,6.84-5.17Z" transform="translate(8.01 7.37)"/><path d="M576.69,60.86c0-4.25-.67-5.09-3-6.34l-1.58-.83c-.5-.17-.67-.25-.67-.59v-.5c0-.33.17-.5.67-.75l8.26-4.26a2.61,2.61,0,0,1,1.17-.33c.5,0,.58.5.58,1l.42,5.93h.33c2.5-3.84,6.43-7.26,10-7.26,2.84,0,4.26,1.75,4.26,3.67a4,4,0,0,1-3.5,4.09,5.49,5.49,0,0,1-2.42-.67,5.36,5.36,0,0,0-2.76-.67c-1.33,0-3.5.84-4.92,3.51a9.1,9.1,0,0,0-.84,2.67V76.89c0,2.58.59,3.42,2.34,3.42H589c.5,0,.59.25.59.75v1.5c0,.5-.09.75-.42.75-.5,0-4.34-.25-8.85-.25-5.17,0-8.67.25-9.18.25-.33,0-.5-.17-.5-.83V81.06c0-.59.17-.75.92-.75h3.26c1.25,0,1.83-.5,1.83-1.59.09-2.75.09-5.67.09-10Z" transform="translate(8.01 7.37)"/><path d="M599.89,101.5c0-1.75,1.83-3.25,3.84-3.25a14.16,14.16,0,0,1,3.83.92,2,2,0,0,0,1.76-.5c1.25-1.51,5.5-11,6.67-14.27-.42-2.09-9.26-28.21-9.93-30-1-2.09-1.75-3.51-3.92-3.51H600c-.58,0-.67-.25-.67-.75V48.51c0-.33.09-.58.67-.58.75,0,2.75.25,7.68.25,4.25,0,6.84-.25,7.76-.25.67,0,.75.25.75.58v1.76c0,.41-.08.66-.5.66h-1.59c-.92,0-1.25.59-1.08,1.84.25,1.83,5.92,20.28,6.84,22.11h.34c.83-1.33,8.09-18.69,8.59-20.78s-.17-3.17-1.42-3.17H626c-.5,0-.59-.25-.59-.66V48.6c0-.42.09-.67.5-.67,1.09,0,2.84.25,6.85.25,2.25,0,4.17-.25,5.09-.25.5,0,.5.33.5.67v1.58c0,.5,0,.75-.42.75H636.6a3.76,3.76,0,0,0-2.92,1.51c-1.83,2.25-7.34,15-13.1,28.12-4.09,9.26-7.34,17-8.84,19.77-1.17,2.17-2.67,5.43-7.1,5.43C601.47,105.76,599.89,104,599.89,101.5Z" transform="translate(8.01 7.37)"/><rect class="cls-1" width="654" height="121"/><path class="cls-2" d="M70.85,26.4C67,9.47,54.6,1,38.36,1,14.15,1,0,20.6,0,43.44s12.45,42.5,38.36,42.5c16.13,0,26.92-7.84,33.4-24.09L57.9,55.49c-3,9.43-9,16.36-19.54,16.36-16.14,0-22.84-14.32-22.84-28.41S22.22,15,38.36,15c9.2,0,16.58,6.13,17.83,15.11L70.85,26.4ZM125.1,43.9C125.1,27.54,112.71,25,100.33,25c-12.62,0-24.55,5.22-24.55,18.74l13.87.57c0-6.25,2.61-8.63,10.68-8.63,6,0,10.9,1.59,10.9,7.27v1.7c-3.52,1.25-10,2.39-15,3.41l-5.8,1.14c-8.52,1.7-17.5,6.7-17.5,17.95s8.64,18.07,19.55,18.07a29.06,29.06,0,0,0,18.74-6.59,10.86,10.86,0,0,0,1.37,5.22h14.65c-.79-1.25-2.15-3.75-2.15-9.66V43.9ZM111.23,63.33c0,7.38-8.29,10.56-14.77,10.56-5,0-9-2.84-9-7.15,0-5.46,4.31-6.94,9.54-8l7.61-1.59a24.69,24.69,0,0,0,6.59-2v8.19ZM135,83.89h13.86V.72H135V83.89Zm23.23-70V70.71c0,8.75,3.86,13.86,15.22,13.86a51.25,51.25,0,0,0,11-1.36V71.85a58.6,58.6,0,0,1-6.13.68c-5.34,0-6.25-2.5-6.25-7V36.4h12.38v-10H172.11V0L158.25,13.88Zm84,44.56c0-20.57-8.41-33.4-27.61-33.4-18.63,0-29.43,13-29.43,30.1S196,85.26,214.64,85.26c15.68,0,24-7.5,28.29-14.09l-11.7-6.82c-1.36,1.93-5.68,8.18-16.59,8.18-7.5,0-14.66-5.57-14.88-14.09ZM199.76,47.76A14.78,14.78,0,0,1,214.64,36.4c9.32,0,13.07,8.29,13.07,11.36ZM300.62,41.4C297.09,32.76,290.28,25,276.3,25c-18.63,0-29.43,13-29.43,30.1s10.8,30.12,28.41,30.12c15.57,0,22.16-9.21,26-17.62l-11.82-6.25c-2.16,5.23-5.68,11.14-14,11.14-9.66,0-14.09-8.41-14.09-17.39s5-17.38,14.88-17.38A12.78,12.78,0,0,1,288.46,47l12.16-5.56Zm4.31,42.49H318.8V54.35c0-7,3.18-15.91,13.63-15.91,7.05,0,10.23,3.41,10.23,11.36V83.89h13.86V45.83c0-16.71-11.25-20.79-21-20.79-7.84,0-13.41,3.06-16.48,7h-.22V.72H304.93V83.89Z" transform="translate(8.01 7.37)"/></svg>