<?xml version="1.0" encoding="UTF-8" standalone="no"?>
<!-- Created with Inkscape (http://www.inkscape.org/) -->

<svg
   version="1.1"
   id="svg2"
   xml:space="preserve"
   width="300"
   height="75"
   viewBox="0 0 300 75"
   xmlns="http://www.w3.org/2000/svg"
   xmlns:svg="http://www.w3.org/2000/svg"><defs
     id="defs6"><linearGradient
       id="linearGradient2849"><stop
         style="stop-color:#000000;stop-opacity:1;"
         offset="0"
         id="stop2847" /></linearGradient></defs><g
     id="g8"
     transform="matrix(1.3333333,0,0,-1.3333333,0,114.58667)"><path
       d="M 24.289051,64.888009 C 22.96493,70.691749 18.718832,73.613005 13.148796,73.613005 4.851745,73.613005 0,66.874587 0,59.045173 0,51.216007 4.267619,44.477182 13.148796,44.477182 c 5.531347,0 9.231315,2.687341 11.451705,8.257667 L 19.8485,54.916657 c -1.012899,-3.233281 -3.077263,-5.609509 -6.699704,-5.609509 -5.5312299,0 -7.8296946,4.907837 -7.8296946,9.738025 0,4.83021 2.2984647,9.737649 7.8296946,9.737649 3.155081,0 5.686805,-2.103086 6.115586,-5.17996 z M 42.88496,58.889162 c 0,5.609135 -4.246056,6.466187 -8.491845,6.466187 -4.323492,0 -8.413713,-1.791725 -8.413713,-6.42707 L 30.73192,58.73341 c 0,2.142587 0.895471,2.960532 3.661195,2.960532 2.064496,0 3.739825,-0.545408 3.739825,-2.492762 v -0.584516 c -1.207427,-0.428536 -3.428192,-0.817936 -5.142086,-1.168395 l -1.986702,-0.389666 c -2.921386,-0.584265 -5.998142,-2.298344 -5.998142,-6.154571 0,-3.817168 2.959962,-6.193189 6.699584,-6.193189 2.453923,0 4.596301,0.778715 6.427346,2.259113 0,-0.506441 0.155212,-1.324398 0.467191,-1.791747 h 5.024319 c -0.272193,0.428249 -0.73949,1.285306 -0.73949,3.310959 z m -4.75202,-6.660781 c 0,-2.531984 -2.843745,-3.622306 -5.063979,-3.622306 -1.71379,0 -3.077311,0.973821 -3.077311,2.453927 0,1.869439 1.480273,2.375868 3.272032,2.72647 l 2.609772,0.545269 c 0.856936,0.156021 1.636189,0.389674 2.259486,0.701722 z m 8.15349,-7.050172 h 4.751681 V 73.691092 H 46.28643 Z m 7.962768,24.002066 V 49.696397 c 0,-2.999228 1.324054,-4.751855 5.219426,-4.751855 1.480266,0 2.648202,0.233667 3.778514,0.467349 v 3.895257 c -0.701417,-0.07803 -1.441614,-0.233719 -2.103904,-0.233719 -1.83064,0 -2.142259,0.857022 -2.142259,2.414701 v 9.972127 h 4.246163 v 3.427752 h -4.246163 v 9.049746 z M 83.04737,53.903649 c 0,7.050449 -2.88273,11.4517 -9.465394,11.4517 -6.388361,0 -10.088688,-4.440526 -10.088688,-10.321886 0,-5.882349 3.700327,-10.32262 10.088688,-10.32262 5.37491,0 8.218553,2.570458 9.699042,4.829935 l -4.012486,2.337043 c -0.467293,-0.661814 -1.947589,-2.804392 -5.686556,-2.804392 -2.570853,0 -5.025003,1.908518 -5.102829,4.83022 z m -14.568223,3.661378 c 0.506349,2.10351 2.337252,3.89523 5.102829,3.89523 3.194014,0 4.479183,-2.843593 4.479183,-3.89523 z m 34.576423,2.181164 c -1.20731,2.960394 -3.544527,5.609158 -8.33609,5.609158 -6.387578,0 -10.088236,-4.440526 -10.088236,-10.321886 0,-5.882349 3.700658,-10.32262 9.737497,-10.32262 5.336977,0 7.596429,3.154698 8.920849,6.037815 l -4.051474,2.142213 c -0.739755,-1.791757 -1.947094,-3.817442 -4.790797,-3.817442 -3.311044,0 -4.830275,2.882072 -4.830275,5.960034 0,3.076612 1.713886,5.959054 5.102436,5.959054 1.870087,0 3.54532,-1.207213 4.168344,-3.154939 z m 1.48031,-14.567982 h 4.7522 v 10.127749 c 0,2.414833 1.09086,5.453281 4.67422,5.453281 2.41558,0 3.50599,-1.169041 3.50599,-3.895223 V 45.178209 H 122.22 v 13.048768 c 0,5.726324 -3.85623,7.128372 -7.20595,7.128372 -2.68804,0 -4.5968,-1.051878 -5.64853,-2.415357 h -0.0782 v 10.7511 h -4.75215 V 45.178209"
       style="fill:#ff6c0c;fill-opacity:1;fill-rule:nonzero;stroke:none;stroke-width:0.0342821"
       id="path12" /><path
       d="m -36.618615,94.027525 c -1.32412,5.803745 -5.57022,8.724995 -11.14026,8.724995 -8.297051,0 -13.14879,-6.738415 -13.14879,-14.567836 0,-7.82916 4.26762,-14.56799 13.14879,-14.56799 5.53135,0 9.23132,2.68734 11.451705,8.25767 l -4.751995,2.181811 c -1.0129,-3.23328 -3.07727,-5.60951 -6.69971,-5.60951 -5.53123,0 -7.82969,4.90784 -7.82969,9.73802 0,4.83021 2.29846,9.73765 7.82969,9.73765 3.15508,0 5.68681,-2.10308 6.11559,-5.17996 z m 18.595905,-5.99885 c 0,5.60914 -4.24606,6.46619 -8.49185,6.46619 -4.32349,0 -8.41371,-1.79173 -8.41371,-6.42707 l 4.75252,-0.19487 c 0,2.14259 0.89547,2.96053 3.66119,2.96053 2.0645,0 3.73983,-0.54541 3.73983,-2.49276 v -0.58452 c -1.20743,-0.42853 -3.42819,-0.81793 -5.14209,-1.16839 l -1.9867,-0.38967 c -2.92139,-0.58426 -5.99814,-2.29834 -5.99814,-6.15457 0,-3.81717 2.95996,-6.19319 6.69958,-6.19319 2.45392,0 4.5963,0.77872 6.42735,2.25912 0,-0.50644 0.15521,-1.3244 0.46719,-1.79175 h 5.02432 c -0.27219,0.42825 -0.73949,1.28531 -0.73949,3.31096 z m -4.75202,-6.66078 c 0,-2.53198 -2.84375,-3.6223 -5.06398,-3.6223 -1.71379,0 -3.07731,0.97382 -3.07731,2.45392 0,1.86944 1.48027,2.37587 3.27203,2.72647 l 2.60977,0.54527 c 0.85694,0.15602 1.63619,0.38968 2.25949,0.70172 z m 8.15349,-7.05017 h 4.7516799 V 102.83061 H -14.62124 Z m 7.9627699,24.00207 v -19.48388 c 0,-2.99923 1.32405,-4.75186 5.21943,-4.75186 1.48026006,0 2.6482001,0.23367 3.7785101,0.46735 v 3.89526 c -0.70142,-0.078 -1.44161004,-0.23372 -2.10390004,-0.23372 -1.83064006,0 -2.14226006,0.85702 -2.14226006,2.4147 v 9.97213 H 2.33947 v 3.42775 h -4.2461601 v 9.049735 z M 22.13971,83.043165 c 0,7.05045 -2.88273,11.451699 -9.4654,11.451699 -6.38836,0 -10.08869,-4.44053 -10.08869,-10.32189 0,-5.88235 3.70033,-10.32262 10.08869,-10.32262 5.37491,0 8.21856,2.57046 9.69905,4.82994 l -4.01249,2.33704 c -0.46729,-0.66181 -1.94759,-2.80439 -5.68656,-2.80439 -2.57085,0 -5.025,1.90852 -5.10283,4.830221 z m -14.56823,3.66138 c 0.50635,2.10351 2.33725,3.89523 5.10283,3.89523 3.19402,0 4.47919,-2.843601 4.47919,-3.89523 z m 34.57643,2.18116 c -1.20731,2.9604 -3.54453,5.60916 -8.33609,5.60916 -6.38758,0 -10.08824,-4.44053 -10.08824,-10.32189 0,-5.88235 3.70066,-10.32262 9.7375,-10.32262 5.33698,0 7.59643,3.1547 8.92085,6.03782 l -4.05148,2.14221 c -0.73975,-1.79176 -1.94709,-3.81744 -4.79079,-3.81744 -3.31105,0 -4.83028,2.88207 -4.83028,5.96003 0,3.07662 1.71389,5.95906 5.10244,5.95906 1.87008,0 3.54532,-1.20722 4.16834,-3.15494 z m 1.48031,-14.56798 h 4.7522 v 10.12775 c 0,2.414829 1.09086,5.45328 4.67422,5.45328 2.41558,0 3.50599,-1.16904 3.50599,-3.89522 v -11.68581 h 4.75171 v 13.04877 c 0,5.726319 -3.85623,7.128369 -7.20595,7.128369 -2.68804,0 -4.5968,-1.05188 -5.64853,-2.41536 h -0.0782 V 102.83061 H 43.62751 V 74.317725"
       style="display:none;fill:#ff6c0c;fill-opacity:1;fill-rule:nonzero;stroke:none;stroke-width:0.0342821"
       id="path12-1" /></g><g
     id="layer2"><g
       aria-label="DATA"
       id="text535"
       style="font-size:38.2317px;font-family:Monda;-inkscape-font-specification:'Monda, Normal';fill:#003b4c;fill-opacity:1;stroke-width:0.358426"
       transform="translate(0,16)"><path
         d="M 178.14789,38.225368 V 11.231697 h 10.71533 q 3.75224,0 5.99237,1.213408 2.24014,1.194741 3.22954,3.248201 1.00806,2.053461 1.00806,4.629621 v 8.904551 q 0,4.386938 -2.53882,6.701748 -2.52016,2.296142 -7.65381,2.296142 z m 3.7709,-2.800173 h 6.60841 q 1.94146,0 3.47222,-0.410692 1.54943,-0.42936 2.44548,-1.680104 0.89606,-1.250744 0.89606,-3.733565 v -9.501921 q 0,-2.501489 -0.91473,-3.789568 -0.89605,-1.306748 -2.44548,-1.773444 -1.53076,-0.485363 -3.45355,-0.485363 h -6.60841 z"
         id="path701"
         style="fill:#003b4c;fill-opacity:1" /><path
         d="m 204.0215,38.225368 10.06195,-26.993671 h 3.30421 l 10.08062,26.993671 h -3.8269 l -1.81078,-5.264326 h -12.07808 l -1.82945,5.264326 z m 6.70174,-8.027163 h 10.1553 l -5.04031,-14.654241 z"
         id="path703"
         style="fill:#003b4c;fill-opacity:1" /><path
         d="m 237.19422,38.225368 v -23.91348 h -7.78449 v -3.080191 h 19.33987 v 3.080191 h -7.80315 v 23.91348 z"
         id="path705"
         style="fill:#003b4c;fill-opacity:1" /><path
         d="m 250.69105,38.225368 10.06196,-26.993671 h 3.3042 l 10.08063,26.993671 h -3.82691 l -1.81078,-5.264326 h -12.07808 l -1.82945,5.264326 z m 6.70175,-8.027163 h 10.15529 l -5.04031,-14.654241 z"
         id="path707"
         style="fill:#003b4c;fill-opacity:1" /></g><g
       aria-label="by Caltech Library"
       id="text2195"
       style="font-size:15.5333px;font-family:'Atkinson Hyperlegible';-inkscape-font-specification:'Atkinson Hyperlegible, Normal';fill:#003b4c;fill-opacity:1"
       transform="translate(0,-2)"><path
         d="m 182.28836,72.707335 q -0.90093,0 -1.52226,-0.357266 -0.62134,-0.372799 -0.9786,-0.994131 l -0.34173,1.164997 H 178.4827 V 62.14469 h 1.3048 v 3.883325 q 0.35726,-0.605798 0.9786,-0.963064 0.62133,-0.372799 1.52226,-0.372799 0.8854,0 1.631,0.481532 0.76113,0.465999 1.21159,1.36693 0.466,0.885399 0.466,2.159129 0,1.273731 -0.466,2.174662 -0.45046,0.885398 -1.21159,1.366931 -0.7456,0.465999 -1.631,0.465999 z m -0.34173,-1.118398 q 0.99413,0 1.58439,-0.761132 0.6058,-0.761131 0.6058,-2.128062 0,-1.382464 -0.6058,-2.128062 -0.59026,-0.761132 -1.58439,-0.761132 -0.99413,0 -1.59993,0.761132 -0.59027,0.745598 -0.59027,2.128062 0,1.366931 0.59027,2.128062 0.6058,0.761132 1.59993,0.761132 z"
         id="path2334"
         style="fill:#003b4c;fill-opacity:1" /><path
         d="m 186.76195,75.021796 v -1.149464 h 0.52813 q 0.5592,0 0.85433,-0.0932 0.29514,-0.07767 0.466,-0.372799 0.1864,-0.279599 0.35727,-0.869865 l -2.78046,-7.704517 h 1.4446 l 1.89506,5.933721 1.89506,-5.933721 h 1.42906 l -2.73386,8.030717 q -0.2796,0.823265 -0.57473,1.289264 -0.2796,0.481532 -0.76113,0.667932 -0.48153,0.201932 -1.3514,0.201932 z"
         id="path2336"
         style="fill:#003b4c;fill-opacity:1" /><path
         d="m 202.68355,72.707335 q -1.47566,0 -2.53193,-0.683466 -1.05626,-0.698998 -1.61546,-1.910596 -0.5592,-1.211597 -0.5592,-2.795994 0,-1.615463 0.59026,-2.811527 0.6058,-1.211597 1.69313,-1.879529 1.08734,-0.667932 2.54747,-0.667932 1.30479,0 2.34552,0.605799 1.05627,0.605798 1.5844,1.739729 l -1.27373,0.465999 q -0.34173,-0.698998 -1.04073,-1.133931 -0.68347,-0.450465 -1.69313,-0.450465 -0.91647,0 -1.66206,0.465999 -0.73007,0.465999 -1.165,1.397997 -0.43493,0.916464 -0.43493,2.267861 0,1.304798 0.4194,2.236796 0.41939,0.931998 1.16499,1.429063 0.76113,0.497066 1.7242,0.497066 1.00966,0 1.69313,-0.434932 0.699,-0.434933 1.05626,-1.149465 l 1.27373,0.465999 q -0.55919,1.149465 -1.64653,1.755263 -1.08733,0.590266 -2.46979,0.590266 z"
         id="path2338"
         style="fill:#003b4c;fill-opacity:1" /><path
         d="m 210.63657,72.707335 q -0.73007,0 -1.33586,-0.264066 -0.6058,-0.264067 -0.96307,-0.761132 -0.35726,-0.497066 -0.35726,-1.196064 0,-0.916465 0.63686,-1.444597 0.6524,-0.528132 1.8174,-0.807732 1.18053,-0.295133 2.74939,-0.465999 0.0311,-0.978598 -0.38833,-1.50673 -0.4194,-0.528132 -1.3514,-0.528132 -0.699,0 -1.14946,0.326199 -0.43494,0.310666 -0.5592,0.869865 l -1.2582,-0.372799 q 0.31067,-0.885398 1.10287,-1.366931 0.80773,-0.497065 1.84846,-0.497065 1.59993,0 2.32999,0.761131 0.7456,0.745599 0.7456,2.361062 v 1.801863 q 0,0.963065 0.0777,1.662063 0.0777,0.698999 0.1864,1.242664 h -1.19607 l -0.31066,-1.056264 q -0.34174,0.574732 -0.9786,0.916464 -0.63687,0.3262 -1.64653,0.3262 z m 0.2796,-1.040731 q 0.6058,0 1.14946,-0.217467 0.54367,-0.217466 0.8854,-0.730065 0.34173,-0.528132 0.34173,-1.429063 v -0.481533 q -1.18053,0.124267 -2.05039,0.310666 -0.86987,0.170867 -1.3514,0.497066 -0.466,0.310666 -0.466,0.838798 0,0.543666 0.38833,0.885398 0.40387,0.3262 1.10287,0.3262 z"
         id="path2340"
         style="fill:#003b4c;fill-opacity:1" /><path
         d="m 218.46534,72.520935 q -0.73007,0 -1.13393,-0.1398 -0.38833,-0.155333 -0.54367,-0.574732 -0.1398,-0.419399 -0.1398,-1.211597 v -8.434582 h 1.3048 v 8.217116 q 0,0.590265 0.12427,0.792198 0.12426,0.201933 0.66793,0.201933 h 0.29513 v 1.149464 z"
         id="path2342"
         style="fill:#003b4c;fill-opacity:1" /><path
         d="m 222.70591,72.520935 q -0.73007,0 -1.13393,-0.1398 -0.38834,-0.155333 -0.54367,-0.574732 -0.1398,-0.419399 -0.1398,-1.211597 v -4.737657 h -1.3048 v -1.040731 h 1.3048 v -1.941662 h 1.3048 v 1.941662 h 1.4912 v 1.040731 h -1.4912 v 4.520191 q 0,0.590265 0.10873,0.792198 0.12427,0.201933 0.68347,0.201933 h 0.699 v 1.149464 z"
         id="path2344"
         style="fill:#003b4c;fill-opacity:1" /><path
         d="m 228.67069,72.707335 q -1.2116,0 -2.0504,-0.528133 -0.8388,-0.543665 -1.28926,-1.444596 -0.43494,-0.916465 -0.43494,-2.050396 0,-1.227131 0.49707,-2.112529 0.49706,-0.900931 1.33586,-1.382464 0.85433,-0.497065 1.9106,-0.497065 0.91646,0 1.61546,0.372799 0.699,0.357266 1.14947,0.978598 0.466,0.605799 0.66793,1.382464 0.21746,0.776665 0.15533,1.599929 h -5.93372 q 0.0311,0.963065 0.4194,1.522264 0.40387,0.559199 0.94753,0.792198 0.54367,0.217466 1.00967,0.217466 0.65239,0 1.08733,-0.201932 0.45046,-0.217467 0.71453,-0.559199 l 1.2582,0.372799 q -0.4194,0.667932 -1.19607,1.102864 -0.77666,0.434933 -1.86399,0.434933 z m -2.36107,-4.722124 h 4.53573 q 0,-0.543665 -0.2796,-1.040731 -0.26407,-0.497065 -0.76113,-0.807731 -0.48154,-0.3262 -1.165,-0.3262 -0.57473,0 -1.08733,0.217466 -0.5126,0.217467 -0.85433,0.698999 -0.3262,0.481532 -0.38834,1.258197 z"
         id="path2346"
         style="fill:#003b4c;fill-opacity:1" /><path
         d="m 236.85673,72.707335 q -1.10287,0 -1.9106,-0.512599 -0.80773,-0.528132 -1.24266,-1.429064 -0.43494,-0.900931 -0.43494,-2.065929 0,-1.149464 0.45047,-2.050395 0.466,-0.916465 1.3048,-1.429064 0.8388,-0.528132 1.97273,-0.528132 1.04073,0 1.78633,0.512599 0.74559,0.512598 1.11839,1.22713 l -1.19606,0.434933 q -0.24853,-0.465999 -0.73007,-0.745599 -0.48153,-0.279599 -1.07179,-0.279599 -0.57474,0 -1.08733,0.310666 -0.5126,0.295133 -0.82327,0.931998 -0.31067,0.621332 -0.31067,1.59993 0,0.963064 0.31067,1.615463 0.3262,0.636865 0.82327,0.947531 0.51259,0.310666 1.08733,0.310666 0.63686,0 1.10286,-0.279599 0.48153,-0.295133 0.73007,-0.730065 l 1.19606,0.434932 q -0.43493,0.745599 -1.24266,1.242664 -0.80774,0.481533 -1.83293,0.481533 z"
         id="path2348"
         style="fill:#003b4c;fill-opacity:1" /><path
         d="M 241.53222,72.520935 V 62.14469 h 1.3048 v 3.836726 q 0.3262,-0.543666 0.91646,-0.916465 0.59027,-0.372799 1.56887,-0.372799 1.39799,0 1.97272,0.823265 0.57474,0.807731 0.57474,2.128062 v 4.877456 h -1.3048 v -4.489124 q 0,-0.590265 -0.10873,-1.087331 -0.10874,-0.512599 -0.48154,-0.823265 -0.35726,-0.310666 -1.10286,-0.310666 -0.94753,0 -1.4912,0.652399 -0.54366,0.636865 -0.54366,1.879529 v 4.178458 z"
         id="path2350"
         style="fill:#003b4c;fill-opacity:1" /><path
         d="M 254.4559,72.520935 V 62.14469 h 1.46013 v 9.118048 h 5.57645 v 1.258197 z"
         id="path2352"
         style="fill:#003b4c;fill-opacity:1" /><path
         d="m 263.77586,63.356288 q -0.38834,0 -0.68347,-0.2796 -0.2796,-0.295132 -0.2796,-0.698998 0,-0.403866 0.2796,-0.683465 0.29513,-0.2796 0.68347,-0.2796 0.40386,0 0.68346,0.2796 0.29513,0.279599 0.29513,0.683465 0,0.403866 -0.29513,0.698998 -0.2796,0.2796 -0.68346,0.2796 z m -0.6524,9.164647 v -6.663786 h -1.0718 v -1.040731 h 2.37659 v 7.704517 z"
         id="path2354"
         style="fill:#003b4c;fill-opacity:1" /><path
         d="m 270.56391,72.707335 q -0.90093,0 -1.52226,-0.357266 -0.62133,-0.372799 -0.9786,-0.994131 l -0.34173,1.164997 h -0.96307 V 62.14469 h 1.3048 v 3.883325 q 0.35727,-0.605798 0.9786,-0.963064 0.62133,-0.372799 1.52226,-0.372799 0.8854,0 1.631,0.481532 0.76113,0.465999 1.21159,1.36693 0.466,0.885399 0.466,2.159129 0,1.273731 -0.466,2.174662 -0.45046,0.885398 -1.21159,1.366931 -0.7456,0.465999 -1.631,0.465999 z m -0.34173,-1.118398 q 0.99413,0 1.58439,-0.761132 0.6058,-0.761131 0.6058,-2.128062 0,-1.382464 -0.6058,-2.128062 -0.59026,-0.761132 -1.58439,-0.761132 -0.99413,0 -1.59993,0.761132 -0.59027,0.745598 -0.59027,2.128062 0,1.366931 0.59027,2.128062 0.6058,0.761132 1.59993,0.761132 z"
         id="path2356"
         style="fill:#003b4c;fill-opacity:1" /><path
         d="m 275.5501,72.520935 v -7.704517 h 0.94753 l 0.4194,1.429064 q 0.40387,-0.698999 1.08733,-1.118398 0.699,-0.434932 1.66206,-0.434932 v 1.351397 q -0.10873,0 -0.233,0 -0.10873,0 -0.21746,0.01553 -1.32033,0.108733 -1.84846,0.916465 -0.5126,0.807731 -0.5126,2.236795 v 3.308593 z"
         id="path2358"
         style="fill:#003b4c;fill-opacity:1" /><path
         d="m 282.7575,72.707335 q -0.73007,0 -1.33586,-0.264066 -0.6058,-0.264067 -0.96307,-0.761132 -0.35726,-0.497066 -0.35726,-1.196064 0,-0.916465 0.63686,-1.444597 0.6524,-0.528132 1.8174,-0.807732 1.18053,-0.295133 2.74939,-0.465999 0.0311,-0.978598 -0.38833,-1.50673 -0.4194,-0.528132 -1.3514,-0.528132 -0.699,0 -1.14946,0.326199 -0.43494,0.310666 -0.5592,0.869865 l -1.2582,-0.372799 q 0.31067,-0.885398 1.10287,-1.366931 0.80773,-0.497065 1.84846,-0.497065 1.59993,0 2.32999,0.761131 0.7456,0.745599 0.7456,2.361062 v 1.801863 q 0,0.963065 0.0777,1.662063 0.0777,0.698999 0.1864,1.242664 h -1.19607 l -0.31066,-1.056264 q -0.34174,0.574732 -0.9786,0.916464 -0.63687,0.3262 -1.64653,0.3262 z m 0.2796,-1.040731 q 0.6058,0 1.14946,-0.217467 0.54367,-0.217466 0.8854,-0.730065 0.34173,-0.528132 0.34173,-1.429063 v -0.481533 q -1.18053,0.124267 -2.05039,0.310666 -0.86987,0.170867 -1.3514,0.497066 -0.466,0.310666 -0.466,0.838798 0,0.543666 0.38833,0.885398 0.40387,0.3262 1.10287,0.3262 z"
         id="path2360"
         style="fill:#003b4c;fill-opacity:1" /><path
         d="m 288.76887,72.520935 v -7.704517 h 0.94753 l 0.4194,1.429064 q 0.40387,-0.698999 1.08733,-1.118398 0.699,-0.434932 1.66207,-0.434932 v 1.351397 q -0.10874,0 -0.233,0 -0.10874,0 -0.21747,0.01553 -1.32033,0.108733 -1.84846,0.916465 -0.5126,0.807731 -0.5126,2.236795 v 3.308593 z"
         id="path2362"
         style="fill:#003b4c;fill-opacity:1" /><path
         d="m 293.94142,75.021796 v -1.149464 h 0.52814 q 0.55919,0 0.85433,-0.0932 0.29513,-0.07767 0.466,-0.372799 0.1864,-0.279599 0.35726,-0.869865 l -2.78046,-7.704517 h 1.4446 l 1.89506,5.933721 1.89506,-5.933721 h 1.42907 l -2.73386,8.030717 q -0.2796,0.823265 -0.57474,1.289264 -0.27959,0.481532 -0.76113,0.667932 -0.48153,0.201932 -1.35139,0.201932 z"
         id="path2364"
         style="fill:#003b4c;fill-opacity:1" /></g></g></svg>
