<?xml version="1.0" encoding="UTF-8" standalone="no"?>
<!-- Created with Inkscape (http://www.inkscape.org/) -->

<svg
   xmlns:dc="http://purl.org/dc/elements/1.1/"
   xmlns:cc="http://creativecommons.org/ns#"
   xmlns:rdf="http://www.w3.org/1999/02/22-rdf-syntax-ns#"
   xmlns:svg="http://www.w3.org/2000/svg"
   xmlns="http://www.w3.org/2000/svg"
   xmlns:sodipodi="http://sodipodi.sourceforge.net/DTD/sodipodi-0.dtd"
   xmlns:inkscape="http://www.inkscape.org/namespaces/inkscape"
   width="86.247925mm"
   height="21.786226mm"
   viewBox="0 0 86.247925 21.786226"
   version="1.1"
   id="svg19281"
   inkscape:version="0.92.2 5c3e80d, 2017-08-06"
   sodipodi:docname="invenio-logo-white-new.svg">
  <defs
     id="defs19275" />
  <sodipodi:namedview
     id="base"
     pagecolor="#ffffff"
     bordercolor="#666666"
     borderopacity="1.0"
     inkscape:pageopacity="0.0"
     inkscape:pageshadow="2"
     inkscape:zoom="8.8165889"
     inkscape:cx="162.9882"
     inkscape:cy="41.170821"
     inkscape:document-units="mm"
     inkscape:current-layer="layer1"
     showgrid="false"
     inkscape:pagecheckerboard="true"
     fit-margin-top="0"
     fit-margin-left="0"
     fit-margin-right="0"
     fit-margin-bottom="0"
     inkscape:window-width="3440"
     inkscape:window-height="1395"
     inkscape:window-x="0"
     inkscape:window-y="1"
     inkscape:window-maximized="1" />
  <metadata
     id="metadata19278">
    <rdf:RDF>
      <cc:Work
         rdf:about="">
        <dc:format>image/svg+xml</dc:format>
        <dc:type
           rdf:resource="http://purl.org/dc/dcmitype/StillImage" />
        <dc:title></dc:title>
      </cc:Work>
    </rdf:RDF>
  </metadata>
  <g
     inkscape:label="Layer 1"
     inkscape:groupmode="layer"
     id="layer1"
     transform="translate(1088.6061,158.39311)">
    <a
       transform="matrix(0.26458333,0,0,0.26458333,-1186.9384,-166.74773)"
       style="display:inline"
       id="a4998">
      <g
         transform="matrix(0.9,0,0,0.9,49.346774,1.872297)"
         style="display:inline"
         id="g25963">
        <rect
           y="36.555683"
           width="14.048"
           height="64.244003"
           id="rect25941"
           x="358.11441"
           style="fill:#ffffff" />
        <g
           transform="translate(358.11441,28.33968)"
           id="g25945">
          <path
             inkscape:connector-curvature="0"
             d="m 328.162,4.665 c -18.767,0 -34.032,15.268 -34.032,34.034 0,7.28 2.306,14.028 6.214,19.568 l -30.078,26.432 c -1.881,1.878 0.067,6.867 1.944,8.749 1.879,1.876 6.87,3.822 8.748,1.943 l 26.265,-29.894 c 5.779,4.525 13.047,7.233 20.939,7.233 18.768,0 34.034,-15.267 34.034,-34.032 0,-18.765 -15.266,-34.033 -34.034,-34.033 z m 0,56.722 c -12.51,0 -22.689,-10.177 -22.689,-22.688 0,-12.511 10.18,-22.69 22.689,-22.69 12.513,0 22.688,10.18 22.688,22.69 0,12.51 -10.175,22.688 -22.688,22.688 z"
             id="path25943"
             style="fill:#ffffff" />
        </g>
        <polygon
           points="125.814,8.325 140.814,8.325 113.512,72.427 86.21,8.433 101.318,8.433 113.62,36.814 "
           id="polygon25947"
           style="fill:#ffffff"
           transform="translate(358.11441,28.33968)" />
        <polygon
           points="239.34,36.974 203.65,8.076 203.65,72.318 218.848,72.318 218.848,43.075 254.537,74.124 254.537,7.961 239.34,7.961 "
           id="polygon25949"
           style="fill:#ffffff"
           transform="translate(358.11441,28.33968)" />
        <polygon
           points="42.848,72.484 42.848,43.241 78.537,74.29 78.537,8.127 63.34,8.127 63.34,37.14 27.65,8.242 27.65,72.484 "
           id="polygon25951"
           style="fill:#ffffff"
           transform="translate(358.11441,28.33968)" />
        <rect
           x="626.11444"
           y="35.389698"
           width="14.049"
           height="64.242996"
           id="rect25953"
           style="fill:#ffffff" />
        <polygon
           points="193.649,59.346 166.976,59.346 166.976,45.624 191.783,45.624 191.783,32.672 166.976,32.672 166.976,20.927 192.991,20.927 192.991,7.974 149.193,7.974 149.193,72.079 193.649,72.079 "
           id="polygon25955"
           style="fill:#ffffff"
           transform="translate(358.11441,28.33968)" />
        <g
           id="g25961"
           transform="matrix(0.38742049,0,0,0.38742049,554.83512,53.02433)">
          <path
             inkscape:connector-curvature="0"
             d="m 375.104,38.079 c 0.174,18.184 -8.123,32.126 -11.51,37.52 8.183,-5.347 19.898,-19.36 19.674,-37.661 0.174,-18.183 -11.431,-32.127 -19.631,-37.52 3.323,5.347 11.691,19.36 11.467,37.661 z"
             id="path25957"
             style="fill:#ffffff" />
          <path
             inkscape:connector-curvature="0"
             d="m 375.104,38.079 c 0.174,18.184 -8.123,32.126 -11.51,37.52 8.183,-5.347 19.898,-19.36 19.674,-37.661 0.174,-18.183 -11.431,-32.127 -19.631,-37.52 3.323,5.347 11.691,19.36 11.467,37.661 z"
             id="path25959"
             style="fill:none;stroke:#ffffff" />
        </g>
      </g>
    </a>
  </g>
</svg>
