<?xml version="1.0" encoding="UTF-8"?>
<svg width="1200pt" height="1200pt" version="1.1" viewBox="0 0 1200 1200" xmlns="http://www.w3.org/2000/svg">
 <path d="m846.81 1145.2h-592.95c-42.688 0-77.398-34.727-77.398-77.426v-810.78c0-42.688 34.727-77.414 77.398-77.414h482.09v75.66c0 62.094 50.496 112.59 112.59 112.59h75.66v699.94c0 42.688-34.715 77.426-77.398 77.426zm-221.44-799.1v113.74h113.74c-7.8594-59.008-54.711-105.88-113.74-113.74zm-17.594 148.93h150.07c9.7227 0 17.598-7.875 17.598-17.598 0-92.461-75.207-167.67-167.67-167.67-9.7227 0-17.598 7.875-17.598 17.598l-0.003906 150.07c0.023437 9.7227 7.8867 17.594 17.598 17.594zm-67.984 185.24c67.09 0 122.7-50.129 131.33-114.89l-131.33 0.011718c-9.7227 0-17.598-7.875-17.598-17.598v-131.34c-64.762 8.6445-114.91 64.25-114.91 131.34 0 73.039 59.449 132.48 132.5 132.48zm150.07-150.07h-132.49v-132.49c0-9.7227-7.875-17.598-17.598-17.598-92.461 0-167.67 75.207-167.67 167.67 0 92.461 75.207 167.66 167.67 167.66 92.461 0 167.67-75.207 167.67-167.66 0.003907-9.707-7.8711-17.582-17.578-17.582zm-294.43 473.68v-113.73h-86.621v113.73zm17.57-148.91h-121.81c-9.7227 0-17.598 7.875-17.598 17.598v148.9c0 9.7227 7.875 17.598 17.598 17.598l121.81-0.011719c9.7227 0 17.598-7.875 17.598-17.598v-148.9c0-9.7148-7.8867-17.586-17.598-17.586zm180.64 148.91v-182.91h-86.633v182.91zm17.586-218.08h-121.8c-9.7227 0-17.598 7.875-17.598 17.598v218.08c0 9.7227 7.875 17.598 17.598 17.598l121.8-0.011718c9.7227 0 17.598-7.875 17.598-17.598v-218.08c-0.003906-9.7148-7.8789-17.586-17.598-17.586zm180.64 218.08v-253.25h-86.621v253.25zm17.582-288.42h-121.8c-9.7227 0-17.598 7.875-17.598 17.598l0.003907 288.41c0 9.7227 7.875 17.598 17.598 17.598l121.8-0.011718c9.7227 0 17.598-7.875 17.598-17.598l-0.007812-288.43c-0.011719-9.6953-7.8711-17.57-17.594-17.57zm149.95 303.72c36.367-6.3203 64.125-38.043 64.152-76.176v-699.94h-75.672c-62.094 0-112.59-50.523-112.59-112.59v-75.66h-482.11c-42.688 0-77.398 34.727-77.398 77.398v12.207h477.77c1.1758 0 2.3398 0.12109 3.4766 0.34375 0.74609 0.13281 1.4219 0.41797 2.1289 0.64844 0.39062 0.13281 0.78516 0.19531 1.1641 0.35547 0.72266 0.30469 1.3945 0.71094 2.0703 1.1133 0.32031 0.18359 0.64844 0.32031 0.95703 0.51562 0.92969 0.61328 1.7773 1.3242 2.5703 2.0938 0.011719 0.011719 0.035156 0.035156 0.074219 0.0625l188.28 188.25c0.80859 0.82031 1.5312 1.7031 2.168 2.6562 0.17188 0.26953 0.28125 0.5625 0.44141 0.83203 0.41797 0.71094 0.84375 1.4219 1.1758 2.1797 0.16016 0.37891 0.23437 0.76953 0.35547 1.1523 0.21875 0.69922 0.50391 1.3828 0.64844 2.1445 0.23438 1.1406 0.34375 2.3008 0.34375 3.4766zm-60.047-686.52-128.22-128.23v50.805c0 42.699 34.738 77.426 77.426 77.426zm-28.898-253h0.011719v50.816c0 42.688 34.715 77.414 77.398 77.414l50.793-0.011718z" fill="#ff6b0b" fill-rule="evenodd"/>
</svg>
