<?xml version="1.0" encoding="UTF-8"?>
<svg width="1200pt" height="1200pt" version="1.1" viewBox="0 0 1200 1200" xmlns="http://www.w3.org/2000/svg">
 <g fill="#ff6b0b">
  <path d="m1162.5 712.5c-0.046875 59.66-23.77 116.86-65.953 159.05s-99.387 65.906-159.05 65.953h-412.5v-79.125c11.41 6.5703 24.332 10.062 37.5 10.125 19.695 0.023438 38.609-7.6992 52.66-21.504 14.047-13.801 22.102-32.578 22.422-52.27 0.32031-19.695-7.1172-38.723-20.707-52.977l-112.5-118.5-0.375-0.375c-1.5586-1.8203-3.3203-3.457-5.25-4.875-1.875-1.5-3.75-3-6-4.5-0.375-0.375-0.75-0.75-1.125-0.75-4.6719-2.8789-9.5625-5.3867-14.625-7.5-4.1172-1.6641-8.3867-2.9219-12.75-3.75-9.4414-1.5-19.059-1.5-28.5 0-4.8945 1-9.6719 2.5078-14.25 4.5-3.6484 1.4336-7.1641 3.1914-10.5 5.25-1.5 0.75-2.625 1.5-4.125 2.25l-5.625 4.5c-2.4336 1.9219-4.6914 4.0547-6.75 6.375l-0.375 0.375-111 117c-13.699 14.434-21.117 33.711-20.625 53.605s8.8516 38.781 23.25 52.52c13.875 13.402 32.461 20.809 51.75 20.625 13.152-0.16016 26.051-3.6445 37.5-10.125v79.125h-112.5c-46.27 0.042969-91.422-14.188-129.3-40.758-37.879-26.57-66.637-64.184-82.344-107.7-15.711-43.52-17.609-90.824-5.4336-135.46 12.172-44.637 37.824-84.43 73.453-113.95-10.781-44.215-7.8398-90.664 8.4297-133.17 16.27-42.504 45.098-79.047 82.645-104.76 37.551-25.715 82.039-39.387 127.55-39.195 14.762-0.046875 29.484 1.5859 43.875 4.875 32.641-49.242 80.949-86.023 137.1-104.38 56.148-18.363 116.86-17.23 172.29 3.2109 55.426 20.441 102.33 58.996 133.11 109.42 44.035 15.309 82.227 43.918 109.3 81.875 27.07 37.953 41.688 83.379 41.824 130v3c52.398 8.9883 99.938 36.188 134.24 76.801 34.301 40.617 53.164 92.039 53.258 145.2z"/>
  <path d="m588.38 820.88c-7.3086 6.7617-16.977 10.391-26.93 10.109-9.9531-0.28125-19.402-4.4492-26.32-11.609l-47.625-50.25v243.38c0 13.398-7.1484 25.777-18.75 32.477-11.602 6.6992-25.898 6.6992-37.5 0-11.602-6.6992-18.75-19.078-18.75-32.477v-243.38l-47.625 50.25c-9.2461 9.7812-23.004 13.887-36.098 10.77-13.09-3.1172-23.527-12.98-27.375-25.875s-0.52344-26.863 8.7227-36.645l112.12-117.75c0-0.375 0.375-0.375 0.375-0.75 2.0078-2.043 4.2773-3.8086 6.75-5.25 1.6289-1.0977 3.3945-1.9766 5.25-2.625 0.375 0 0.75-0.375 1.125-0.375 0.375-0.375 0.75-0.75 1.125-0.75 1.7656-0.84766 3.6719-1.3555 5.625-1.5 4.8867-1.5 10.113-1.5 15 0 1.9531 0.14453 3.8594 0.65234 5.625 1.5 0.375 0 0.75 0.375 1.125 0.75 0.375 0 0.75 0.375 1.125 0.375 1.8555 0.64844 3.6211 1.5273 5.25 2.625 2.4727 1.4414 4.7422 3.207 6.75 5.25 0 0.375 0.375 0.375 0.375 0.75l112.12 117.75c6.8242 7.2773 10.5 16.961 10.219 26.934-0.28125 9.9766-4.4922 19.434-11.719 26.316z"/>
 </g>
</svg>
