<?xml version="1.0" encoding="UTF-8"?>
<svg width="1200pt" height="1200pt" version="1.1" viewBox="0 0 1200 1200" xmlns="http://www.w3.org/2000/svg">
 <g fill="#ff6b0b">
  <path d="m393.75 693.75h525v-337.5h-525zm487.5-37.5h-37.5v-37.5h37.5zm-163.31-249.19 26.625-26.625 56.25 56.25c3.5508 3.5195 5.5469 8.3125 5.5469 13.312s-1.9961 9.793-5.5469 13.312l-56.25 56.25-26.625-26.625 43.125-42.938zm-60.75-18.75 35.625 12-37.5 112.5-35.625-12zm-145.5 48.938 56.25-56.25 26.625 26.625-43.125 42.375 43.125 42.938-26.625 26.625-56.25-56.25c-3.5508-3.5195-5.5469-8.3125-5.5469-13.312s1.9961-9.793 5.5469-13.312zm-80.438 106.5h450v37.5h-450zm0 75h375v37.5h-375z"/>
  <path d="m843.75 1106.2h-487.5c-9.9453 0-19.484 3.9492-26.516 10.984-7.0352 7.0312-10.984 16.57-10.984 26.516h562.5c0-9.9453-3.9492-19.484-10.984-26.516-7.0312-7.0352-16.57-10.984-26.516-10.984z"/>
  <path d="m281.25 356.25h75v337.5h-75z"/>
  <path d="m445.88 956.25-28.125 112.5h364.5l-28.125-112.5z"/>
  <path d="m918.75 206.25h-637.5v112.5h637.5zm-112.5 75h-37.5v-37.5h37.5zm75 0h-37.5v-37.5h37.5z"/>
  <path d="m131.25 768.75h937.5v-637.5h-937.5zm112.5-581.25c0-4.9727 1.9766-9.7422 5.4922-13.258 3.5156-3.5156 8.2852-5.4922 13.258-5.4922h675c4.9727 0 9.7422 1.9766 13.258 5.4922 3.5156 3.5156 5.4922 8.2852 5.4922 13.258v525c0 4.9727-1.9766 9.7422-5.4922 13.258-3.5156 3.5156-8.2852 5.4922-13.258 5.4922h-675c-4.9727 0-9.7422-1.9766-13.258-5.4922-3.5156-3.5156-5.4922-8.2852-5.4922-13.258z"/>
  <path d="m1087.5 56.25h-975c-14.918 0-29.227 5.9258-39.773 16.477-10.551 10.547-16.477 24.855-16.477 39.773v750c0 14.918 5.9258 29.227 16.477 39.773 10.547 10.551 24.855 16.477 39.773 16.477h975c14.918 0 29.227-5.9258 39.773-16.477 10.551-10.547 16.477-24.855 16.477-39.773v-750c0-14.918-5.9258-29.227-16.477-39.773-10.547-10.551-24.855-16.477-39.773-16.477zm-93.75 825h-37.5v-37.5h37.5zm75 0h-37.5v-37.5h37.5zm37.5-93.75c0 4.9727-1.9766 9.7422-5.4922 13.258-3.5156 3.5156-8.2852 5.4922-13.258 5.4922h-975c-4.9727 0-9.7422-1.9766-13.258-5.4922-3.5156-3.5156-5.4922-8.2852-5.4922-13.258v-675c0-4.9727 1.9766-9.7422 5.4922-13.258 3.5156-3.5156 8.2852-5.4922 13.258-5.4922h975c4.9727 0 9.7422 1.9766 13.258 5.4922 3.5156 3.5156 5.4922 8.2852 5.4922 13.258z"/>
 </g>
</svg>
